<?xml version="1.0" standalone="no"?>
<!DOCTYPE svg PUBLIC "-//W3C//DTD SVG 20010904//EN"
 "http://www.w3.org/TR/2001/REC-SVG-20010904/DTD/svg10.dtd">
<svg version="1.0" xmlns="http://www.w3.org/2000/svg"
 width="83.000000pt" height="82.000000pt" viewBox="0 0 83.000000 82.000000"
 preserveAspectRatio="xMidYMid meet">

<g transform="translate(0.000000,82.000000) scale(0.100000,-0.100000)"
fill="#000000" stroke="none">
<path d="M0 410 l0 -410 415 0 415 0 0 410 0 410 -415 0 -415 0 0 -410z m810
-5 l0 -395 -392 2 -393 3 -3 380 c-1 209 0 386 3 392 3 10 91 13 395 13 l390
0 0 -395z"/>
<path d="M667 696 c-25 -26 -317 -534 -317 -553 0 -42 54 -58 82 -25 35 40
308 523 308 545 0 43 -43 63 -73 33z"/>
<path d="M126 671 c-24 -26 -16 -46 73 -196 79 -134 101 -154 137 -125 25 22
15 54 -57 181 -90 159 -115 182 -153 140z"/>
</g>
</svg>
